<?xml version="1.0" encoding="UTF-8" standalone="no"?>
<!-- Created with Inkscape (http://www.inkscape.org/) -->

<svg
   xmlns:dc="http://purl.org/dc/elements/1.1/"
   xmlns:cc="http://creativecommons.org/ns#"
   xmlns:rdf="http://www.w3.org/1999/02/22-rdf-syntax-ns#"
   xmlns:svg="http://www.w3.org/2000/svg"
   xmlns="http://www.w3.org/2000/svg"
   xmlns:sodipodi="http://sodipodi.sourceforge.net/DTD/sodipodi-0.dtd"
   xmlns:inkscape="http://www.inkscape.org/namespaces/inkscape"
   width="1000"
   height="1000"
   id="svg3467"
   version="1.1"
   inkscape:version="0.91 r13725"
   viewBox="0 0 1000 1000"
   sodipodi:docname="LogoTwo.svg">
  <defs
     id="defs5498" />
  <sodipodi:namedview
     inkscape:window-height="713"
     inkscape:window-width="1317"
     inkscape:pageshadow="2"
     inkscape:pageopacity="0.0"
     borderopacity="1.0"
     bordercolor="#666666"
     pagecolor="#ffffff"
     id="base"
     showgrid="false"
     showguides="true"
     inkscape:guide-bbox="true"
     inkscape:zoom="0.38254477"
     inkscape:cx="334.56518"
     inkscape:cy="369.42473"
     inkscape:window-x="0"
     inkscape:window-y="31"
     inkscape:current-layer="layer1"
     inkscape:snap-bbox="false"
     inkscape:bbox-nodes="false"
     inkscape:snap-bbox-edge-midpoints="false"
     inkscape:snap-bbox-midpoints="false"
     inkscape:snap-nodes="false"
     inkscape:snap-global="false"
     inkscape:window-maximized="1">
    <sodipodi:guide
       orientation="horizontal"
       position="200"
       id="guide5596" />
  </sodipodi:namedview>
  <metadata
     id="metadata5594">
    <rdf:RDF>
      <cc:Work
         rdf:about="">
        <dc:format>image/svg+xml</dc:format>
        <dc:type
           rdf:resource="http://purl.org/dc/dcmitype/StillImage" />
        <dc:title></dc:title>
      </cc:Work>
    </rdf:RDF>
  </metadata>
  <g
     inkscape:label="Layer 1"
     inkscape:groupmode="layer"
     id="layer1">
    <path
       style="fill:#333333"
       id="path3910"
       d="m 74.935613,881.28656 c 1.11374,-0.76819 1.97005,-1.75331 2.61876,-2.89914 0.25577,-0.56353 0.42108,-1.17852 0.46028,-1.8594 -0.0463,-1.00584 0.4369,-0.0589 -0.19237,-0.20468 -2.07469,-0.92356 -4.1497,-1.83237 -6.22576,-2.72868 -2.53996,-1.10388 -5.09149,-2.31608 -7.46722,-2.47595 -0.3794,-0.0332 -0.7718,-0.0941 -1.13818,-0.0996 -1.0155,-0.0153 -3.99924,0.0587 -3.0061,0.0317 28.184951,-0.76698 17.92383,-0.63454 11.96512,-0.0805 -3.1589,0.0985 -4.74103,1.16434 -6.46423,2.88939 -2.53148,2.4288 -3.76802,5.76671 -4.80892,9.21386 -0.94823,3.46644 -1.23825,7.27197 -1.37392,11.13349 -0.0643,2.36825 -0.22482,2.13415 2.53361,3.53283 1.75806,0.79467 3.52182,1.48665 5.28259,2.21981 2.24153,0.92901 4.48295,1.86763 6.7243,2.81163 2.91222,1.34374 5.56534,1.33424 8.11159,1.41238 3.38106,0.28081 6.538591,0.0966 9.862961,0.27414 2.97341,0.36326 5.92176,0.76257 9.084036,1.79425 2.13224,0.64202 4.28239,1.59835 6.42693,2.49312 1.88788,0.81543 3.77556,1.62981 5.66421,2.41694 1.69491,0.58867 3.14702,1.46847 4.64753,2.68679 2.05489,1.33339 3.73931,2.99134 5.3304,4.74002 1.40603,1.48783 2.2988,3.03502 3.00486,4.62142 1.15199,2.20348 1.91095,4.34716 2.55414,6.49111 0.89033,3.35509 1.09173,6.50061 1.14877,9.58124 -0.004,2.66084 0.10267,5.36656 0.0993,8.02771 0.0899,1.15031 0.0683,2.16707 -0.2366,3.12657 -1.70484,1.60089 -4.08168,2.597 -6.55472,3.38682 -7.00861,1.18034 -15.2653,0.82085 -22.69971,0.9642 -1.708086,0.0329 -3.639596,-0.32743 -5.499116,-0.67257 -5.10862,-0.9694 -10.257591,-2.06107 -15.352811,-2.98878 -3.15753,-0.63664 -6.27012,-0.83876 -9.56905,-2.08951 -2.99096,-1.33062 -6.03327,-2.33592 -8.99319,-3.93606 -2.08976,-1.04407 -2.80316,-1.8408 -3.95453,-3.57384 -0.82891,-1.19467 -1.26677,-2.41819 -1.67302,-3.59841 -0.36833,-1.36919 -0.48365,-2.65842 -0.54403,-3.92904 0.10688,-0.41638 -0.5166,-2.11225 0.14185,-1.90741 4.32925,-3.00273 12.31715,-3.11457 19.88836,-0.39639 0.82843,0.41642 1.66448,0.75516 2.4971,1.12461 0.33832,0.14704 0.6768,0.28794 1.01524,0.42883 0,0 -17.02978,2.3635 -17.02978,2.3635 l 0,0 c -0.32339,-0.14337 -0.64687,-0.28526 -0.97058,-0.41875 -0.75612,-0.30342 -1.55118,-0.67307 -2.2625,-0.73235 -7.8152,-0.91673 24.75035,1.2129 16.11941,-0.59435 -0.27864,0.72888 -0.74928,-0.84855 -0.80565,-0.1515 -0.0261,0.32276 -0.0255,0.38722 -0.0413,0.73781 -0.0174,1.10318 0.014,2.23292 0.27066,3.43353 0.2932,0.98706 0.69737,1.97867 1.39939,2.98455 0.68144,1.03818 1.70511,1.47348 2.85438,2.06827 2.91229,1.34283 5.85426,2.57525 8.75673,3.50736 3.029141,0.76359 6.000081,1.32015 8.971741,1.8779 5.215296,1.03062 10.419366,2.02821 15.576896,2.8773 1.46781,0.19029 1.84796,0.26948 3.30161,0.32736 0.62591,0.0249 2.45263,-10e-4 1.85024,0.0194 -27.788926,0.94194 -18.277866,0.64223 -12.31718,0.2179 2.5885,-0.44282 4.75687,-1.44664 6.73539,-2.61949 0.16822,-0.032 0.38576,-0.007 0.50471,-0.0959 0.32644,-0.24295 -0.13982,-1.96603 0.16142,-2.24843 0.11707,-2.62956 0.29824,-5.23333 0.21257,-7.94876 -0.1099,-2.94739 -0.22046,-5.92563 -1.12634,-9.12822 -0.67523,-2.07493 -1.29698,-4.11296 -2.55937,-6.24678 -0.60129,-1.32162 -1.33364,-2.58009 -2.5356,-3.80597 -1.4558,-1.58174 -3.14171,-2.92712 -4.97688,-4.12743 -1.401996,-0.87026 -2.795836,-1.43847 -4.245006,-2.03424 -1.87361,-0.82135 -3.74775,-1.62032 -5.62248,-2.40049 -2.04864,-0.86005 -4.098911,-1.63797 -6.124701,-2.21126 -2.98304,-0.73729 -5.8707,-1.14099 -8.63909,-1.27683 -3.24964,-0.009 -6.56832,-0.16692 -9.89227,-0.32583 -2.82538,-0.22517 -5.68485,-0.68409 -8.796,-2.17106 -2.23621,-0.94138 -4.472564,-1.87847 -6.709005,-2.79273 -1.863407,-0.76216 -3.754744,-1.47391 -5.568289,-2.62097 -3.10458,-2.06389 -4.180308,-3.64461 -3.738456,-6.05995 0.3347,-3.87037 0.711822,-7.72838 1.473922,-11.38916 0.924623,-3.58906 2.010021,-7.10953 4.434609,-9.7134 1.474943,-1.91122 2.816226,-3.70843 6.028658,-3.8288 8.761271,-0.95356 17.826401,-1.67139 27.682781,-0.48379 2.56801,0.74404 5.14846,1.91491 7.737891,3.03103 2.25403,0.96046 4.59293,1.8458 6.77776,3.2249 0.9404,0.81947 1.71337,1.74337 1.57875,2.59644 -0.0466,0.80558 -0.10122,1.60904 -0.38357,2.2935 -0.46555,1.35989 -1.32733,2.46376 -2.36934,3.39955 0,0 -19.024611,-1.49637 -19.024611,-1.49637 z"
       inkscape:connector-curvature="0" />
    <path
       style="fill:#333333"
       id="path3912"
       d="m 67.042123,761.63069 c 0.98468,-0.91244 2.30799,-1.50228 3.27908,-2.42495 0.0844,-0.0962 0.10713,-0.25717 0.25328,-0.28848 0.1296,-0.0278 0.2842,0.38772 0.17148,0.43662 -0.14161,0.0614 -0.9613,-0.35065 -0.99343,-0.35515 -0.24551,-0.0344 -0.42207,0.0643 -0.63308,0.0965 -5.24469,1.92417 -0.17569,-0.0272 16.23819,-0.12583 0.33163,-0.002 -0.57729,0.14386 -0.82275,0.26611 -0.95598,0.47612 -1.30428,1.34707 -1.6914,2.26667 -0.57514,2.21699 -0.91852,4.59521 -0.64727,7.19708 1.12592,3.34181 3.86136,6.75942 6.134571,10.05866 3.81947,5.75136 7.98956,11.43828 11.757236,17.19675 4.23946,6.27067 7.29655,12.56578 10.14695,18.86195 2.05313,4.71457 4.11654,9.40992 6.69069,14.14341 2.41404,4.15991 5.10582,8.29729 7.959,12.40171 2.5461,3.54251 5.20482,7.06989 7.44539,10.66549 1.36901,2.71307 3.66689,5.11205 5.94132,7.57135 2.84838,3.51345 5.58948,7.0673 8.25988,10.63341 3.91365,5.17066 7.56042,10.41333 10.98387,15.68011 2.95857,5.0521 5.87442,10.11355 8.5861,15.17589 2.16306,4.10078 4.5399,8.19276 6.87709,12.28691 1.70649,3.14206 3.46369,6.27591 5.07493,9.41826 1.57108,3.27911 3.06884,6.56828 4.408,9.83178 1.41664,3.48367 2.56804,6.93925 3.79316,10.39925 0.81642,2.5533 1.75316,5.12698 2.38444,7.64273 0.75157,2.85669 1.29304,5.65967 1.62533,8.39765 0.15632,1.37485 0.29432,2.74677 0.27871,4.05754 0.006,0.44872 -0.0138,0.88659 -0.0178,1.33124 0,0 -18.61522,-0.51974 -18.61522,-0.51974 l 0,0 c 0.0211,-0.43567 0.0273,-0.87752 0.0513,-1.31191 0.0248,-1.28449 0.10149,-2.54781 0.002,-3.8832 -0.20056,-2.6299 -0.59938,-5.33315 -1.46417,-8.15558 -0.6112,-2.47315 -1.62791,-5.02235 -2.26172,-7.50123 -1.04645,-3.3881 -2.30194,-6.82552 -3.67016,-10.26134 -1.31287,-3.20176 -2.83978,-6.43721 -4.37367,-9.65316 -1.57536,-3.11543 -3.33616,-6.22157 -4.98486,-9.33746 -2.21026,-4.10805 -4.572,-8.21441 -6.65927,-12.32504 -2.68686,-4.99915 -5.55468,-9.99613 -8.48609,-14.98483 -3.32821,-5.20845 -6.90541,-10.39456 -10.89465,-15.46951 -2.72996,-3.48049 -5.52393,-6.94859 -8.42717,-10.36881 -2.38465,-2.61271 -4.71979,-5.24034 -6.17193,-8.09071 -2.14034,-3.53787 -4.71701,-7.03068 -7.14692,-10.52429 -2.9478,-4.19543 -5.73672,-8.42678 -8.206976,-12.68499 -2.54816,-4.80241 -4.45589,-9.53775 -6.46022,-14.3102 -2.71762,-6.17195 -5.82358,-12.34557 -9.946831,-18.49624 -3.76614,-5.74093 -7.94277,-11.40472 -11.9574,-17.1008 -2.60981,-3.61864 -5.55549,-7.32141 -6.84522,-11.02243 -0.52905,-2.85157 -0.11671,-5.36924 0.3265,-7.81999 1.75059,-7.22299 8.57194,-7.78766 21.44058,-4.23508 1.694341,0.87907 4.469241,2.77566 3.499661,4.16299 -0.85713,1.06978 -2.04206,1.783 -3.205851,2.56717 0,0 -19.0246,-1.49637 -19.0246,-1.49637 z"
       inkscape:connector-curvature="0" />
    <path
       style="fill:#333333"
       id="path3914"
       d="m 133.28795,868.16968 c 3.42708,-0.92697 6.29191,-2.50759 9.144,-4.08919 2.50835,-1.3152 5.07296,-2.57259 7.83017,-3.6077 3.37691,-1.24327 7.00636,-2.16527 10.79741,-2.85986 7.1218,-1.01149 15.00136,-0.66179 22.69339,-0.74907 0.55251,-0.006 1.13298,0.0378 1.72584,0.12082 1.43805,0.20142 2.93296,0.57023 4.39611,0.84469 2.81319,0.79435 5.66571,1.08387 8.54893,2.25285 1.34763,0.54642 2.13667,1.14849 3.39527,1.97474 3.63085,2.7924 6.31771,6.14189 8.62903,9.58057 2.29389,3.31319 3.29521,6.60626 4.46087,9.86711 1.51524,3.74486 2.65057,7.42989 3.98984,11.14795 0.94434,3.00431 2.03507,6.03598 2.96392,9.03728 0.68767,2.84889 1.49437,5.72143 2.43953,8.62481 0.91791,3.12754 1.55084,6.18672 2.53409,9.32904 1.29963,4.07367 3.08681,8.22474 4.90983,12.36332 2.19284,5.20763 4.31801,10.40916 6.49409,15.61562 1.98305,4.3869 3.49453,8.7221 5.27201,13.08547 0.68956,1.57651 1.19994,3.14788 2.08474,4.73359 0,0 -18.04693,0.38893 -18.04693,0.38893 l 0,0 c -0.80543,-1.6683 -1.22922,-3.28802 -1.91502,-4.94746 -1.7019,-4.35687 -3.06987,-8.67225 -5.00539,-13.05866 -2.14018,-5.17917 -4.38179,-10.36702 -6.55446,-15.549 -1.95785,-4.2142 -3.75901,-8.42528 -5.22619,-12.58888 -1.04843,-3.14639 -1.68431,-6.19482 -2.59581,-9.31239 -0.99325,-2.92388 -1.74719,-5.80103 -2.45691,-8.66573 -0.92,-2.97808 -1.95106,-5.97801 -2.82831,-8.94818 -1.3415,-3.71716 -2.32488,-7.37594 -3.98439,-11.14053 -1.14792,-3.08523 -2.08211,-6.19128 -4.20887,-9.32137 -2.03405,-3.0494 -4.49646,-6.08004 -7.91955,-8.29516 -3.77613,-1.98856 -7.5203,-2.56356 -11.15219,-3.32151 -1.98138,-0.32354 -2.46401,-0.44461 -4.34263,-0.59174 -0.58633,-0.0459 -2.28397,-0.0562 -1.73143,-0.0777 29.04016,-1.12821 18.45406,-0.66981 12.27501,-0.26266 -3.82368,0.55724 -7.4254,1.43349 -10.78408,2.62279 -2.81876,0.93949 -5.34133,2.18629 -7.89908,3.42722 -2.90362,1.45582 -5.59792,3.13694 -8.75732,4.30865 0,0 -19.17553,-1.93868 -19.17553,-1.93868 z"
       inkscape:connector-curvature="0" />
    <path
       style="fill:#333333"
       id="path3916"
       d="m 262.38118,886.99357 c -31.80958,1.50973 -12.2138,0.43393 -5.3829,-0.96935 4.3404,-0.86917 8.63182,-1.80736 12.73405,-3.00015 1.92778,-0.6489 3.7551,-1.50055 4.84429,-2.98116 0.31804,-0.67445 0.42501,-1.48278 0.33254,-2.35955 -1.08892,-2.45826 -3.35767,-4.75878 -5.37775,-7.00652 -2.5766,-2.74989 -5.05448,-5.48646 -8.2096,-7.74809 -2.75831,-1.86466 -5.55344,-3.0298 -8.37994,-3.76227 -6.37899,-0.41618 -16.00418,-0.1421 12.4772,-0.44528 0.67276,-0.007 -1.30993,0.0791 -1.94192,0.15575 -1.58932,0.19289 -2.38956,0.40958 -3.8782,0.73961 -3.08995,0.53167 -5.29762,2.05661 -7.5735,3.50481 -2.10933,1.14077 -4.30014,2.1944 -5.79193,3.9208 -1.51622,2.45491 -2.08254,5.56907 -2.66649,8.58356 -0.88634,4.70469 -1.06997,9.75006 -1.28254,14.76964 -0.0727,5.61445 1.8379,11.84862 4.20434,18.09867 1.93097,5.1779 4.76962,10.43744 8.28241,15.5999 3.49171,4.74504 7.48404,9.39765 11.8337,13.7945 3.53242,3.59175 7.53185,6.6237 11.82873,9.24531 4.00933,2.33011 8.02787,4.53257 12.11572,6.49601 4.39953,2.21223 6.93818,2.94098 10.94472,3.13754 6.77683,0.0337 5.49188,0.0135 -14.54726,0.34458 -0.41031,0.007 0.80651,-0.0405 1.19251,-0.0887 1.09625,-0.13695 1.88255,-0.51264 2.76552,-0.92726 3.89073,-1.89238 8.25891,-3.22579 12.34693,-4.88823 3.08925,-1.48579 5.90646,-3.26468 8.8568,-4.89954 1.83589,-1.03579 3.74305,-1.99607 5.64476,-2.96162 0.27245,-0.19544 0.72781,-0.0388 0.93442,-0.30552 0.0457,-0.80657 0.0667,-1.62508 0.0926,-2.44078 -0.16557,-1.58996 -1.34556,-3.27016 -2.42925,-4.91573 0,0 17.9273,-0.60731 17.9273,-0.60731 l 0,0 c 1.23691,2.01956 2.5264,4.02103 3.02604,6.01715 0.006,0.82327 0.0171,1.64912 0.0832,2.49546 0.10862,0.63788 0.1633,1.42677 -0.4414,1.59944 -2.17129,0.82513 -4.22772,1.78516 -6.223,2.80891 -2.99884,1.58878 -5.75775,3.41937 -8.7057,5.05667 -4.09793,1.56664 -8.47253,2.81036 -12.22365,4.77844 -0.56543,0.32403 -1.03736,0.74393 -1.62382,1.04574 -0.26602,0.1369 -1.8008,0.60073 -2.06642,0.6102 -17.26496,0.61567 -12.59573,0.91824 -20.74518,0.29977 -3.89637,-0.55624 -7.48427,-1.84034 -11.56013,-3.99385 -4.11958,-2.08622 -8.19019,-4.35641 -12.21697,-6.80461 -4.45087,-2.88504 -8.59715,-6.14108 -12.2057,-9.9674 -4.32714,-4.60942 -8.48226,-9.35364 -12.02104,-14.25916 -3.64367,-5.35732 -6.44434,-10.7716 -8.39344,-16.1349 -2.43276,-6.45332 -4.46418,-12.89401 -4.50416,-18.7387 0.13283,-5.06981 0.23165,-10.16706 0.92554,-14.98253 0.48519,-2.42947 1.11344,-4.793 1.55956,-7.24112 0.0703,-0.38576 0.0362,-0.82418 0.131,-1.1969 0.068,-0.26755 0.23605,-0.47423 0.35408,-0.71134 1.45092,-1.89369 3.42989,-3.24201 5.76229,-4.32108 1.15446,-0.58678 1.97665,-1.42927 3.07561,-2.0636 1.33398,-0.76999 2.87896,-1.37045 4.50755,-1.79099 8.35803,-2.15404 17.9435,-3.34348 28.67191,-1.01395 3.11791,1.07826 6.19421,2.52435 9.07512,4.75187 3.15709,2.53992 5.77227,5.43634 8.47226,8.31334 2.35894,2.63728 4.85016,5.29302 6.29707,8.1589 0.36079,1.20699 0.31823,2.29569 0.0702,3.27152 -0.63428,2.095 -2.84939,3.03756 -4.88871,3.9074 -4.0381,1.26146 -8.3,2.23819 -12.62153,3.11805 -9.08086,2.07464 -19.15624,2.39571 -29.68471,2.18935 0,0 16.21674,-3.28575 16.21674,-3.28575 z"
       inkscape:connector-curvature="0" />
    <path
       style="fill:#333333"
       id="path3918"
       d="m 269.63295,743.15145 c -3.40779,0.93439 -6.93612,1.70585 -9.83119,3.25948 -2.10154,1.37378 -3.15128,3.6365 -3.99772,5.95368 -0.52474,1.61713 -0.80368,3.36822 -0.79297,5.24944 0.29793,2.88779 2.03046,5.982 4.02818,9.02212 3.17908,4.17779 6.23396,8.39054 9.28523,12.60048 3.37541,4.62757 6.90787,9.21257 10.38217,13.81471 3.34219,4.16931 6.28334,8.44072 9.43605,12.65753 2.93193,4.01689 5.94269,8.03686 9.24592,11.94375 1.84522,2.53381 4.67095,4.29569 7.00409,6.46712 0.31056,0.37294 0.65715,0.73547 0.9317,1.1188 0.69785,0.97436 1.22099,2.0411 1.7572,3.023 1.03215,1.89014 2.08278,3.77185 3.18987,5.65874 2.32411,4.06321 5.00383,8.08035 7.79845,12.08236 3.23761,4.23941 6.42192,8.49142 9.62929,12.73938 2.24399,3.38809 5.05451,6.62553 7.37621,9.99151 3.03598,4.39811 5.63907,8.8578 8.32451,13.29774 3.3377,5.23708 7.11909,10.39751 11.23791,15.45404 2.49552,3.02238 4.87877,6.07526 7.22784,9.14457 3.32371,4.33205 6.02625,8.81862 8.63071,13.26018 2.40619,3.9892 4.55802,7.99514 6.66738,11.9956 2.04762,3.54358 4.1474,7.05227 5.74435,10.59876 1.67869,3.93159 2.52941,7.67348 2.99292,11.32805 0.30613,2.33126 0.42355,4.59817 0.44803,6.82576 -0.009,0.94599 0.003,1.9007 -0.006,2.84635 5.1e-4,0.083 9.6e-4,0.16587 0.001,0.2488 0,0 -18.67229,-0.52685 -18.67229,-0.52685 l 0,0 c 0.006,-0.0828 0.0116,-0.16619 0.0177,-0.24919 0.0531,-0.93957 0.13874,-1.86451 0.16446,-2.81637 0.09,-2.16362 0.14015,-4.34622 -0.051,-6.62369 -0.3717,-3.46501 -1.13187,-7.01456 -2.69488,-10.76496 -1.5823,-3.49798 -3.80478,-6.96227 -5.7077,-10.46087 -2.09448,-3.9647 -4.10112,-7.93487 -6.40168,-11.89398 -2.56099,-4.34703 -5.32302,-8.72403 -8.73248,-12.92176 -2.37868,-3.02632 -4.67202,-6.07943 -7.00789,-9.11794 -4.05194,-5.18996 -7.78794,-10.45545 -11.25601,-15.7718 -2.75372,-4.39266 -5.49,-8.79845 -8.58727,-13.14037 -2.34684,-3.3154 -4.97303,-6.56788 -7.18358,-9.91507 -3.16417,-4.28907 -6.41041,-8.55633 -9.68438,-12.81613 -2.86086,-4.06056 -5.50015,-8.14449 -7.898,-12.26636 -1.75872,-2.89754 -3.3245,-6.26026 -5.70978,-8.96744 -2.51116,-2.19935 -5.12647,-4.31382 -7.02606,-6.91036 -3.18537,-3.99274 -6.28408,-8.02021 -9.22469,-12.0795 -3.11387,-4.2173 -6.13021,-8.4579 -9.39089,-12.6389 -3.48334,-4.61553 -6.94523,-9.23541 -10.38749,-13.8613 -3.10967,-4.25317 -6.27445,-8.49132 -9.49279,-12.71733 -2.21628,-3.36864 -4.16842,-6.77271 -4.71667,-10.03346 -0.25575,-2.13218 -0.0786,-4.069 0.58406,-5.77484 0.84403,-2.48044 1.88949,-4.92628 3.71128,-6.71422 2.67711,-1.75728 6.09795,-2.62916 9.50747,-3.53331 0,0 19.12942,1.93402 19.12942,1.93402 z"
       inkscape:connector-curvature="0" />
    <path
       style="fill:#333333"
       id="path3920"
       d="m 300.89641,843.0945 c 0.46445,-4.6535 4.08595,-7.4271 7.16375,-10.23672 2.09421,-1.68285 3.92435,-3.71028 6.61121,-4.808 8.67321,-1.09797 17.76437,-2.16945 28.03483,0.022 3.94855,1.08925 7.86883,2.05673 11.82259,3.15829 4.0774,1.19564 8.19453,2.6279 12.31247,4.18625 2.66126,0.81697 4.67702,2.34108 6.7887,4.40194 2.12653,2.32336 3.6581,4.81632 5.32721,7.25941 1.95671,3.05767 3.95007,6.11038 5.89893,9.16886 2.09365,3.23653 4.1331,6.48173 6.10797,9.73156 2.16996,3.53441 4.71266,7.01208 6.94546,10.53776 2.92379,4.76386 6.16005,9.48268 9.29209,14.21813 3.69595,5.79158 7.24463,11.59679 10.95386,17.38701 3.98123,5.84358 8.307,11.61562 12.4238,17.43163 3.35972,4.6512 6.24286,9.38612 9.08907,14.10787 0.92592,1.78739 2.26879,3.56514 3.2109,5.34568 0.47773,0.95884 0.97261,1.90095 1.27659,2.84524 0.36295,0.9175 0.99684,1.83867 1.55965,2.75666 1.10031,2.5933 2.55295,5.18891 3.98276,7.78755 0.73188,1.32389 1.47534,2.64737 2.22555,3.97055 0,0 -18.11078,0.38388 -18.11078,0.38388 l 0,0 c -0.59398,-1.3044 -1.22355,-2.61105 -1.90903,-3.91876 -1.37861,-2.56627 -2.85594,-5.14451 -4.26975,-7.70142 -0.6165,-1.10369 -1.38653,-2.1961 -1.84385,-3.30108 -0.18378,-0.80968 -0.69853,-1.61855 -1.05583,-2.44715 -0.82006,-1.73395 -2.00174,-3.48546 -2.76877,-5.22248 -2.59314,-4.6645 -5.43446,-9.31901 -8.73786,-13.90366 -4.05903,-5.85896 -8.34292,-11.67137 -12.37122,-17.53618 -3.72083,-5.77912 -7.29487,-11.57542 -11.07649,-17.34667 -3.15028,-4.74709 -6.44884,-9.46983 -9.43646,-14.24111 -2.33743,-3.5373 -4.97146,-7.02849 -7.09482,-10.59658 -1.98762,-3.23034 -4.00644,-6.45838 -6.10071,-9.67647 -1.96045,-3.03114 -3.89633,-6.066 -5.91956,-9.0882 -1.54001,-2.23488 -2.99973,-4.53829 -5.04082,-6.61909 -1.92945,-1.65807 -3.8442,-2.54622 -6.04556,-3.29773 -3.98663,-1.52944 -7.97124,-2.93561 -11.89987,-3.97924 -3.98086,-1.05182 -7.95379,-2.05336 -11.89478,-2.9426 -1.39819,-0.21948 -1.7363,-0.29937 -3.12826,-0.40082 -0.59842,-0.0436 -2.33834,-0.0604 -1.77265,-0.0818 27.89176,-1.05579 18.48705,-0.46391 12.32222,-0.36872 -3.26819,0.43155 -5.12295,2.68366 -7.43112,4.19376 -2.46187,2.1113 -6.27434,4.81023 -6.94351,8.23176 -0.0642,0.32815 0.0394,0.73162 0.0591,1.09745 0,0 -18.55693,-0.50869 -18.55693,-0.50869 z"
       inkscape:connector-curvature="0" />
    <path
       style="fill:#333333"
       id="path3922"
       d="m 479.74967,833.9077 c 1.42286,3.80354 3.47649,7.66855 5.32001,11.50612 3.21424,7.00837 7.46763,13.98225 11.64494,20.96303 3.35363,5.57483 7.21426,11.1015 11.30702,16.54985 2.31598,3.07418 4.67001,6.13442 6.99928,9.20505 1.68104,2.15339 3.31363,4.31359 4.86717,6.49853 2.54469,3.37164 4.77829,6.79908 6.98208,10.23211 2.27871,3.52888 4.92004,7.0001 7.65363,10.42453 3.06456,3.98956 6.43895,7.875 9.94189,11.69211 3.13384,3.50086 6.62498,6.79875 9.94629,10.19098 2.77712,2.83985 5.61635,5.62201 8.7475,8.18664 0.7547,0.52825 2.23905,2.00249 3.14561,1.85133 0.18875,-0.0315 0.55987,-0.33359 0.35284,-0.33245 -17.04616,0.0948 -21.30717,3.00309 -16.94089,0.1547 0.56916,-1.12584 0.52541,-2.60381 0.55324,-4.00855 0.0286,-1.5086 0.0241,-3.03094 0.0331,-4.54764 -0.0238,-0.92197 -0.0226,-1.83328 0.0151,-2.72968 0.009,-0.73492 0.0367,-1.46213 0.0404,-2.19941 0,0 18.61213,0.51046 18.61213,0.51046 l 0,0 c -0.028,0.72885 -0.0334,1.46726 -0.0563,2.1983 -10e-4,0.91845 -0.0389,1.82084 -0.0885,2.71852 -0.0366,1.50726 -0.0732,3.0144 -0.0622,4.54163 -0.005,1.5632 -0.003,3.13094 -0.25334,4.58409 -1.26413,7.22864 -15.12142,5.64852 -22.57055,-1.28933 -3.11929,-2.70786 -6.14141,-5.49636 -8.86492,-8.48194 -3.31802,-3.43324 -6.87762,-6.73412 -9.96438,-10.29511 -3.48525,-3.89267 -6.867,-7.83521 -10.03861,-11.85024 -2.85997,-3.4987 -5.51901,-7.06366 -7.78967,-10.698 -2.22424,-3.38782 -4.49459,-6.77303 -7.11894,-10.07735 -1.62517,-2.15216 -3.19502,-4.31376 -4.81839,-6.46704 -2.29037,-3.0762 -4.56295,-6.14822 -6.76932,-9.24411 -3.99281,-5.54918 -7.71897,-11.16055 -11.03416,-16.80713 -4.16088,-7.03469 -8.53763,-14.05839 -11.99757,-21.12195 -2.04625,-3.92736 -4.16239,-7.85623 -6.04001,-11.778 0,0 18.24589,-0.0799 18.24589,-0.0799 z"
       inkscape:connector-curvature="0" />
    <path
       style="fill:#333333"
       id="path3924"
       d="m 480.38706,837.33096 c -3.85806,0.62192 -7.24963,1.87031 -10.57254,3.1811 -2.99789,1.35594 -6.03252,2.67663 -8.9397,4.1336 -3.39596,1.89593 -6.85038,3.72625 -9.85479,6.01425 -2.74878,2.29584 -4.98478,5.04149 -7.13186,7.83455 -1.78213,2.50336 -3.03574,5.39036 -3.99665,8.43362 -0.71187,2.3484 -0.97571,4.9316 -1.2306,7.51269 -0.20658,3.31597 -0.58811,6.56922 -0.42958,10.04235 0.12337,2.70254 0.40555,4.08054 0.83277,6.90015 1.01156,5.32556 3.01833,10.8887 5.53146,16.47311 2.74355,5.73066 6.49864,11.44761 10.51594,17.06179 4.00143,5.31073 8.76697,10.37035 14.00709,15.0346 3.50543,3.02305 7.34437,5.66483 11.16117,8.25257 3.51667,2.34086 7.04403,4.56436 10.68384,6.57868 4.33297,2.45733 6.31588,3.107 10.29897,3.18359 -5.16564,0.0832 -10.28837,0.24715 -15.49695,0.24951 -0.63446,2.9e-4 1.19801,-0.1269 1.76099,-0.24327 1.68792,-0.34895 2.88555,-1.08626 3.83316,-2.19108 2.84795,-4.68378 5.11214,-9.78878 7.41352,-14.84339 2.7842,-6.4639 5.37911,-13.04687 8.02911,-19.59505 1.36593,-3.27671 2.67513,-6.59074 3.76891,-10.03328 0.24123,-0.6787 0.11137,-0.37729 0.37372,-0.91428 0,0 19.12646,1.59501 19.12646,1.59501 l 0,0 c -0.57413,0.0558 -0.29034,-0.018 -0.80323,0.28265 -1.63912,3.27903 -3.16777,6.63063 -4.68101,9.99202 -2.7674,6.50832 -5.43126,13.07953 -8.16541,19.60923 -2.12571,5.02482 -4.39534,9.95931 -6.331,15.10298 -3.63806,6.47014 -16.95357,3.70311 -24.89304,4.03672 -4.24342,-0.56639 -6.78004,-1.66233 -11.08918,-4.23653 -3.67901,-2.15737 -7.34502,-4.3825 -10.90024,-6.8367 -3.84726,-2.73639 -7.73611,-5.47732 -11.20777,-8.67768 -5.20145,-4.92893 -10.0439,-10.14827 -14.08291,-15.62129 -4.14039,-5.76707 -8.08374,-11.61911 -10.95866,-17.51378 -2.66689,-5.7879 -4.41697,-11.47495 -5.42034,-16.96713 -0.45973,-2.71992 -0.81635,-4.47684 -1.02759,-7.10962 -0.27863,-3.4724 -0.0473,-6.74963 -0.16535,-10.15926 0.0389,-2.78671 0.49392,-5.37033 1.23419,-7.81045 0.94771,-3.14637 1.99243,-6.27296 3.85866,-8.82375 2.18709,-2.81236 4.36971,-5.6527 6.99638,-8.10528 2.95272,-2.35194 6.41207,-4.17741 9.65985,-6.23581 2.88948,-1.53982 6.03866,-2.77347 8.99104,-4.24983 3.24593,-1.27563 6.47842,-2.56918 10.02127,-3.47926 0,0 19.2799,2.14195 19.2799,2.14195 z"
       inkscape:connector-curvature="0" />
    <path
       style="fill:#333333"
       id="path3926"
       d="m 525.92621,831.57189 c 4.49724,1.63583 8.9359,2.7709 13.44642,4.60274 5.61752,3.01758 10.71462,7.28908 15.29674,11.73256 5.05567,5.34471 9.77347,10.88004 14.21791,16.47948 3.51428,4.62837 6.88047,9.3001 10.25273,13.96432 3.55346,5.04798 6.88929,10.13137 10.22604,15.21489 3.13692,5.05414 6.39634,10.08858 9.80062,15.10654 2.59148,3.48437 4.82744,7.01712 7.07585,10.557 3.5225,5.44815 7.45289,10.81383 11.35761,16.18683 2.00363,2.97045 4.37124,5.86985 6.44481,8.82058 2.04884,3.76369 4.96245,7.43548 7.61441,11.11144 1.4539,2.00979 2.85154,4.03851 4.173,6.07217 0,0 -18.00748,0.5809 -18.00748,0.5809 l 0,0 c -1.16167,-1.98061 -2.40888,-3.96321 -3.72942,-5.92503 -2.59924,-3.72456 -5.42011,-7.40089 -7.90587,-11.14497 -1.94471,-2.93028 -4.04027,-5.83955 -5.93176,-8.7797 -3.85511,-5.41872 -7.78599,-10.81874 -11.49067,-16.2676 -2.47551,-3.50917 -4.7618,-7.02706 -7.08114,-10.56278 -3.30326,-5.03812 -6.5845,-10.07545 -9.7412,-15.13183 -3.29026,-5.04947 -6.64488,-10.0925 -10.21844,-15.09392 -3.34276,-4.62866 -6.71547,-9.25506 -10.14954,-13.86088 -4.26252,-5.49168 -8.80196,-10.9444 -13.91153,-16.07472 -4.44778,-4.13289 -9.37862,-8.18531 -14.8136,-10.59239 -4.63388,-1.71237 -9.2095,-2.97554 -13.83688,-4.63674 0,0 16.91139,-2.35889 16.91139,-2.35889 z"
       inkscape:connector-curvature="0" />
    <path
       style="fill:#333333"
       id="path3930"
       d="m 598.27118,837.37177 c -2.46058,3.34829 -4.61272,6.92442 -6.46536,10.70306 -2.15361,4.7842 -3.18029,10.24311 -3.97563,15.78382 -0.42629,3.03092 -0.57156,6.19194 -0.70943,9.35469 -0.21933,3.07639 -0.27151,6.22431 -0.26562,9.39706 0.0586,1.63366 -0.18178,3.26742 0.6033,5.12074 0.70321,1.23026 1.3098,2.45419 1.96714,3.6851 0.80608,1.56995 1.16091,3.09077 1.76523,4.64118 0.38671,1.21472 1.05517,2.43299 1.74167,3.66224 0,0 -18.09039,0.42514 -18.09039,0.42514 l 0,0 c -0.66613,-1.30583 -1.3682,-2.60236 -1.77683,-3.89036 -0.63389,-1.48468 -1.01318,-2.93121 -1.72278,-4.41785 -0.68705,-1.29631 -1.34113,-2.58713 -2.07093,-3.88392 -0.89964,-2.1304 -0.83471,-4.03038 -0.69758,-5.83974 0.12625,-3.11425 0.18071,-6.25758 0.15666,-9.43513 0.15189,-3.27041 0.63012,-6.38974 1.15271,-9.48311 0.96087,-5.55878 1.75065,-11.24849 3.97441,-16.10006 1.69705,-3.74681 3.57383,-7.37442 5.62493,-10.88228 0,0 18.78844,1.15942 18.78844,1.15942 z"
       inkscape:connector-curvature="0" />
    <path
       style="fill:#333333"
       id="path3932"
       d="m 571.57765,843.70736 c 2.22501,-1.58703 3.19963,-3.97429 3.95617,-6.61343 1.01339,-4.08272 1.42931,-8.47573 1.6597,-12.94084 0.22867,-4.38254 0.46111,-8.7607 0.51054,-13.22114 0.19328,-5.45211 0.35137,-10.9035 0.12199,-16.5297 -0.26496,-7.08787 -2.35188,-14.70182 -4.93835,-22.40376 -2.45387,-7.2672 -5.96404,-14.648 -9.30255,-22.00144 -2.08812,-5.14946 -5.2142,-10.31541 -8.38629,-15.45069 -2.96113,-5.35351 -6.35035,-10.67367 -9.54972,-16.00949 -3.06096,-5.22571 -6.82232,-10.31317 -10.79078,-15.36439 -2.64456,-3.40579 -5.44388,-7.1358 -9.20771,-9.92108 -0.66825,-0.49451 -1.3795,-0.91541 -2.06925,-1.37311 -2.59448,-1.41001 -5.30344,-3.17283 -7.96445,-4.19592 -5.91837,-2.27549 -21.48078,-1.05421 8.85513,-1.13233 -6.79021,1.27877 -9.93312,5.25854 -12.43881,10.43585 -2.10389,4.4774 -2.96969,9.66509 -3.54163,14.98026 -0.62821,5.42034 -0.3054,11.28302 1.57245,17.58077 0.39769,1.33378 0.92501,2.69125 1.38752,4.03687 3.17432,7.8692 8.33141,15.76146 13.60708,23.53861 5.20926,7.59182 10.6834,15.13231 16.4075,22.6067 4.67913,6.11892 10.21254,11.87032 15.82594,17.55625 5.69159,5.7353 11.56312,11.35022 17.66372,16.78283 5.68019,5.02359 11.85144,9.48232 18.27628,13.37109 4.48058,2.31486 9.16632,5.08817 13.72303,6.57741 0.97522,0.31872 1.92644,0.50116 2.88967,0.75174 1.05143,0.14957 2.13594,0.37959 3.15431,0.44873 1.1323,0.0769 4.36202,-0.0322 3.27801,-0.012 -22.41105,0.41689 -15.67835,0.60863 -9.99958,-0.1751 1.16155,-0.16032 2.29794,-0.35943 3.4199,-0.57832 1.13495,-0.22142 2.23289,-0.49488 3.34933,-0.74232 6.8469,-1.87986 12.57217,-5.10467 18.02765,-8.54078 2.55843,-1.83819 5.19198,-3.68495 6.7947,-6.34161 0.83195,-1.37904 0.86301,-1.88702 1.36353,-3.56148 1.00764,-5.19932 0.96681,-10.90497 0.88863,-16.59332 -0.30038,-1.841 0.19382,-3.45627 -0.21436,-5.33399 -0.22071,-1.01528 -0.65783,-1.58373 -1.28029,-2.67641 -2.4201,-3.34669 -5.25761,-6.57509 -7.92981,-9.8475 -7.14044,-2.88834 -1.65265,-0.60931 17.34948,0.16177 0.23241,0.009 -0.39247,0.14694 -0.4183,0.33724 -0.0559,0.41189 0.0797,0.90668 0.18537,1.37918 0.37164,1.66121 0.82165,2.67787 1.47448,4.42512 3.2876,7.84518 8.46886,15.7772 13.27189,23.59969 6.70453,10.85299 13.7617,21.66135 20.99549,32.44401 7.84391,11.37917 16.03539,22.68832 23.88881,34.06545 6.14681,8.83064 12.23037,17.67484 18.48494,26.48424 6.85767,9.55472 13.16815,19.17877 18.89317,28.88801 2.37682,4.52054 5.63292,9.2258 7.06702,13.71917 0.86021,2.69526 0.79135,4.08875 1.01587,6.68321 0.0747,8.93135 -0.0736,17.77077 0.0668,26.72903 -0.053,0.78044 0.0514,1.64166 -0.15913,2.34132 -1.60616,5.33756 -8.98669,8.28992 -14.53732,10.02676 -12.10415,2.20103 -25.70884,2.36665 -40.67842,-1.80652 -5.84423,-1.90968 -11.73865,-4.39231 -17.60831,-6.85072 -4.47782,-2.28185 -8.62579,-5.58915 -11.5285,-9.54207 -0.57332,-0.78074 -1.02987,-1.58316 -1.54481,-2.37474 -2.0746,-3.63145 -2.90479,-7.07228 -3.27871,-10.39172 -0.0801,-2.09289 -0.23322,-4.29745 0.36616,-6.07826 0.24186,-0.71867 0.62164,-1.35171 0.93246,-2.02757 3.65233,-5.0632 10.36902,-7.25861 17.75152,-8.22902 1.99307,2.40041 16.49324,-1.91589 24.17539,-0.0456 2.47065,0.60151 5.11495,1.82889 7.61582,2.86832 5.87044,2.50096 11.74064,5.00988 17.61206,7.46198 4.72203,1.98995 9.43689,4.13965 14.15939,6.16286 6.26928,2.608 12.53561,5.2743 18.80326,7.95667 3.09923,1.33586 6.19931,2.62405 9.29939,3.90027 1.985,0.81746 3.39991,1.5678 5.2675,1.82545 3.60026,0.0313 7.45941,0.67438 11.25144,1.15519 8.92364,0.93904 17.74481,1.66671 26.37808,1.95824 12.93887,-0.33343 -4.2437,0.13563 -7.38878,-0.009 -1.59596,-0.0735 2.97286,-0.26021 4.4087,-0.46923 4.68261,-0.68166 8.0055,-1.87391 11.8833,-3.56538 5.83118,-2.90107 10.15394,-7.23433 12.92886,-12.72508 2.40361,-4.94896 1.27804,-11.46758 -0.47256,-18.11653 -2.12657,-7.73915 -6.26491,-15.69079 -10.50539,-23.60674 -4.79627,-9.21646 -10.55297,-18.36217 -16.87131,-27.42954 -5.88768,-8.77496 -11.83852,-17.52599 -18.10926,-26.22852 -6.18943,-8.77737 -13.55449,-17.20433 -20.24778,-25.83473 -6.80493,-9.00916 -13.29895,-18.10119 -18.69927,-27.34011 -6.58542,-12.06788 -12.97132,-24.13037 -18.62256,-36.18554 -4.47995,-9.82155 -9.32701,-19.68171 -15.26099,-29.50432 -1.84128,-3.04791 -4.11323,-6.51831 -6.09527,-9.58284 -2.89017,-4.17449 -6.22702,-8.23977 -9.55801,-12.28934 -1.42453,-2.00166 -3.45347,-3.46284 -5.4713,-5.01547 -2.51988,-1.50676 -2.75264,-3.49329 -3.54353,-5.46563 -0.34471,-0.85966 -0.73257,-1.72381 -1.09887,-2.58572 -3.33238,-7.04413 -6.75334,-14.09442 -10.62472,-21.14715 -2.87736,-4.93342 -5.80069,-9.85885 -7.84446,-14.78028 -1.25179,-2.90537 -2.37109,-5.79484 -3.45426,-8.68033 0,0 17.95215,-0.078 17.95215,-0.078 l 0,0 c 0.87385,2.81101 1.86762,5.64454 3.21119,8.51934 2.22137,4.86005 4.6381,9.73678 7.34991,14.60622 3.75021,7.0879 7.45969,14.1771 10.99925,21.26346 0.45326,0.88566 0.91659,1.77148 1.36108,2.657 1.16442,2.32215 0.6932,2.43269 3.0514,4.1246 2.16533,1.75715 4.22099,3.51822 5.74372,5.69016 3.23937,4.15068 6.29684,8.37693 8.91891,12.64821 7.53573,13.10669 14.54901,26.21639 20.60429,39.32787 5.90273,12.0015 12.54399,23.99527 19.38826,35.98727 5.37425,9.14172 11.43544,18.18647 18.58528,27.01257 6.75847,8.62843 13.74933,17.19078 20.1156,25.9308 6.36959,8.714 12.36251,17.49721 18.30642,26.29494 6.12608,9.1765 11.91699,18.41686 17.0446,27.68916 4.22389,8.04417 8.59397,16.18756 10.91872,24.07688 1.65557,6.79154 3.25014,13.79295 1.0823,19.06363 -2.87947,5.67012 -7.31677,10.20059 -13.14664,13.40268 -3.27567,1.60253 -3.76637,2.04316 -7.51512,3.08097 -10.0914,2.79375 -23.04529,1.92876 -34.64113,2.25381 -8.85287,-0.37583 -17.86155,-1.10337 -26.95852,-2.02467 -1.46335,-0.17223 -4.26656,-0.5139 -5.78012,-0.65011 -2.00916,-0.18081 -3.95043,-0.0885 -6.12751,-0.74064 -4.77372,-1.86971 -9.55298,-4.26335 -14.33021,-6.13746 -6.24496,-2.62463 -12.48789,-5.26151 -18.73094,-7.96863 -4.85916,-2.04775 -9.72342,-3.94167 -14.57639,-6.12835 -5.75657,-2.60373 -11.52344,-5.14019 -17.28868,-7.40281 -2.07908,-0.7667 -3.51521,-1.3589 -5.52538,-1.88526 -6.70971,-1.75693 -19.17437,0.47812 8.63959,-1.0989 -7.43818,0.53962 -14.31996,2.24427 -18.08541,7.03919 -0.29507,0.57711 -0.66309,1.1078 -0.88521,1.73132 -0.59394,1.66732 -0.15454,3.86133 -0.32919,5.73006 0.10682,2.96099 0.62287,6.05898 2.48103,9.40815 0.44869,0.68862 0.83747,1.38902 1.34614,2.06587 2.71955,3.61877 6.71299,6.35651 10.79795,8.16523 5.70771,2.48387 11.45117,4.91449 17.11154,6.54065 3.62471,0.94117 7.15888,1.75805 10.62029,2.13998 4.80231,0.52988 17.565,0.59167 -8.25373,0.77679 -1.42866,0.0102 2.7143,-0.26971 4.07144,-0.40457 1.27149,-0.31594 2.60206,-0.55529 3.81448,-0.94782 4.35286,-1.40929 9.1528,-3.89621 10.82195,-7.81531 0.28047,-0.65854 0.3223,-1.45653 0.48345,-2.18481 0.59084,-8.6054 0.95108,-17.34321 0.11557,-26.53218 -0.34164,-2.4842 -0.39089,-3.73733 -1.13553,-6.23337 -1.30666,-4.37997 -3.94917,-8.94785 -6.31192,-13.394 -5.54052,-9.65073 -11.94398,-19.18995 -18.80684,-28.66169 -6.34282,-8.80601 -12.42243,-17.66009 -18.34407,-26.54469 -7.69913,-11.399 -15.69209,-22.74403 -23.71356,-34.08289 -7.37116,-10.80548 -14.41688,-21.65779 -21.32534,-32.5305 -4.96177,-7.95272 -10.42069,-15.96723 -14.13127,-23.96939 -0.92279,-2.18743 -1.88459,-4.40976 -2.42697,-6.54269 -0.13613,-0.53528 -0.8196,-1.52869 -0.29166,-1.57534 17.73391,-1.56686 13.62119,-5.8785 19.51698,0.78945 2.52761,3.43048 5.43869,6.73169 7.93845,10.16842 0.85795,1.38202 1.48394,2.18559 1.8767,3.5321 0.58811,2.01657 -0.25637,3.6194 -0.0513,5.49415 -0.23776,5.63577 -0.41286,11.30007 -0.82033,16.86071 -0.12597,0.75618 -0.18241,1.54948 -0.37781,2.26859 -1.07558,3.95811 -4.74809,6.11922 -7.87366,8.43989 -5.40165,3.51052 -10.98852,6.89641 -17.70025,8.97296 -10.82153,2.65457 -16.01004,2.34616 -30.77588,2.57462 -1.13218,0.0175 -2.32693,-0.0782 -3.54147,-0.23994 -1.11001,-0.14783 -2.27494,-0.45746 -3.4124,-0.68619 -1.04389,-0.33581 -2.08248,-0.61892 -3.13166,-1.00742 -4.69158,-1.73723 -9.40904,-4.50266 -13.98489,-7.04369 -6.45968,-4.12299 -12.65523,-8.76723 -18.38718,-13.90023 -6.13435,-5.51913 -12.1349,-11.14917 -17.87472,-16.95843 -5.67637,-5.78929 -11.17739,-11.69557 -15.86492,-17.92121 -5.63208,-7.54146 -11.13621,-15.11552 -16.38007,-22.74227 -5.40136,-7.96984 -10.60071,-16.04334 -13.8476,-24.10497 -0.49529,-1.39624 -1.05666,-2.80392 -1.48586,-4.18871 -1.99335,-6.43138 -2.51659,-12.48137 -2.05331,-18.08946 0.38716,-5.51269 1.28679,-10.76956 3.37562,-15.37286 2.32958,-5.48234 5.50796,-9.57244 11.80645,-11.68043 2.02332,-0.0593 15.35261,-2.28022 23.31114,0.0729 3.80696,1.12562 7.69407,3.55062 11.35868,5.74469 0.78068,0.56177 1.58866,1.08615 2.34206,1.68534 3.80215,3.02389 6.46122,6.97102 9.23235,10.49836 3.99894,5.16763 8.09108,10.34584 11.11055,15.69931 3.01557,5.33516 6.43819,10.63845 9.58551,15.96483 3.11951,5.2349 6.14748,10.50754 8.43208,15.74629 3.18303,7.41182 6.01447,14.78778 8.88781,22.16551 2.85081,7.87102 4.88467,15.55334 5.54193,22.89137 0.21666,5.62356 0.14525,11.13279 0.0214,16.61744 -0.14014,4.4128 -0.0299,8.93233 -0.29311,13.29011 -0.38245,4.46622 -0.85909,8.88911 -1.67345,13.14556 -0.24438,1.25821 -0.34871,2.59296 -0.71565,3.78373 -0.43041,1.3968 -1.47145,2.43459 -2.45713,3.41907 0,0 -18.93405,-1.35426 -18.93405,-1.35426 z"
       inkscape:connector-curvature="0" />
    <path
       style="fill:#333333"
       id="path3934"
       d="m 739.31883,663.78138 c 3.99592,8.86811 9.14175,17.73429 14.56083,26.57051 11.17054,17.78088 24.48047,35.18638 37.54382,52.58455 15.52077,20.57398 30.96558,41.16645 46.01824,61.85628 11.66944,16.08429 22.90831,32.25778 33.92485,48.46932 6.36447,9.55216 13.15909,18.99011 20.58676,28.29081 5.50915,6.77659 11.46594,13.37971 17.06187,20.1217 4.03564,4.90351 7.94888,9.86392 11.66866,14.86503 4.34268,5.8726 9.16685,11.60111 13.77573,17.39558 4.71087,5.65201 9.00678,11.45245 13.97547,17.00698 1.40981,1.27413 2.26982,3.0802 3.77579,4.2743 0,0 -17.70346,1.17683 -17.70346,1.17683 l 0,0 c -1.22905,-1.47087 -2.20691,-3.02564 -3.48042,-4.48658 -4.59725,-5.67862 -8.81561,-11.48267 -13.58407,-17.10528 -4.73487,-5.81759 -9.6904,-11.56078 -14.14669,-17.46856 -3.74633,-4.9383 -7.40887,-9.91034 -11.44141,-14.762 -5.46778,-6.78257 -11.3355,-13.4155 -16.82912,-20.18912 -7.24292,-9.39063 -13.89725,-18.89369 -19.98886,-28.51722 -10.53734,-16.2103 -21.35521,-32.38055 -32.89315,-48.42067 -14.79789,-20.73048 -30.29109,-41.29064 -45.96484,-61.80606 -13.27145,-17.48008 -26.86193,-34.92869 -38.65227,-52.74294 -3.58858,-5.57275 -4.52928,-6.92706 -7.77955,-12.3652 -2.86855,-4.79945 -5.39989,-9.63264 -8.52355,-14.40906 0,0 18.09537,-0.3392 18.09537,-0.3392 z"
       inkscape:connector-curvature="0" />
    <path
       style="fill:#333333"
       id="path3950"
       d="m 858.3817,787.25565 c -12.89275,3.48065 -25.20593,7.70101 -37.81719,11.5402 -13.65184,3.93635 -28.33114,6.49054 -42.92516,9.1194 -7.30638,1.14915 -14.21461,2.89204 -21.71867,3.74365 -12.35907,0.2473 -24.71814,0.49459 -37.07721,0.74189 -0.41807,-0.10935 -0.87788,-0.32936 -1.25422,-0.32796 -0.28395,0.001 -0.35509,0.28602 -0.60968,0.33503 -0.56982,0.10969 -1.56038,-0.0928 -2.22583,-0.1303 0,0 32.86893,-6.43987 32.86893,-6.43987 l 0,0 c 12.91008,0.0775 30.64198,9.0408 -30.32843,1.13191 8.50922,-0.16537 15.91104,-2.08235 23.84722,-3.16763 14.50453,-2.4286 28.90391,-5.01752 42.36503,-8.90474 12.71454,-3.32344 24.82302,-7.44462 36.98529,-11.47231 0,0 37.88992,3.83073 37.88992,3.83073 z"
       inkscape:connector-curvature="0" />
    <path
       style="fill:none;fill-rule:evenodd;stroke:#000000;stroke-width:2.24949312px;stroke-linecap:butt;stroke-linejoin:miter;stroke-opacity:1"
       d="m 26.525721,957.05937 948.283769,0 0,15.05969"
       id="path3958"
       inkscape:connector-curvature="0" />
  </g>
</svg>
